<svg width="14" height="14" viewBox="0 0 14 14" fill="none" xmlns="http://www.w3.org/2000/svg">
<path d="M11.5269 6.20262C11.5269 3.26068 9.14377 0.87836 6.20262 0.87836C3.26073 0.87836 0.87836 3.26073 0.87836 6.20262C0.87836 9.14364 3.26047 11.5267 6.20223 11.5269C7.58715 11.529 8.91805 10.9897 9.91095 10.0242L9.91098 10.0242L9.91592 10.0193L10.0193 9.91592L9.66577 9.56239L10.0242 9.91095C10.9896 8.91815 11.5289 7.5874 11.5269 6.20262ZM11.5269 6.20262H11.0269L11.5269 6.20183C11.5269 6.20209 11.5269 6.20236 11.5269 6.20262ZM10.6581 9.76101L10.3779 10.1106L10.6947 10.4273L13.2929 13.0249L13.0249 13.2929L10.4273 10.6947L10.1106 10.3779L9.76101 10.6581C8.75187 11.4671 7.49669 11.9071 6.20333 11.9052H6.20262C3.05492 11.9052 0.5 9.35032 0.5 6.20262C0.5 3.05492 3.05492 0.5 6.20262 0.5C9.35032 0.5 11.9052 3.05492 11.9052 6.20262L11.9052 6.20333C11.9071 7.49669 11.4671 8.75187 10.6581 9.76101Z" stroke="black"/>
</svg>
